<svg xmlns="http://www.w3.org/2000/svg" viewBox="0 0 68 68" width="272" height="272">
  <rect x="0" y="0" width="20" height="20" rx="5" fill="#F7F3EC"></rect>
    <rect x="24" y="0" width="20" height="20" rx="5" fill="#F7F3EC"></rect>
    <rect x="48" y="0" width="20" height="20" rx="5" fill="#F7F3EC"></rect>
    <rect x="0" y="24" width="20" height="20" rx="5" fill="#F7F3EC"></rect>
    <rect x="24" y="24" width="20" height="20" rx="5" fill="#F7F3EC"></rect>
    <rect x="48" y="24" width="20" height="20" rx="5" fill="#F7F3EC"></rect>
    <path d="M5 48H15Q20 48 20 53V63Q20 68 15 68H12Q0 68 0 56V53Q0 48 5 48Z" fill="#F7F3EC"></path>
    <rect x="24" y="48" width="20" height="20" rx="5" fill="#C97E2C"></rect>
    <rect x="49.25" y="49.25" width="17.5" height="17.5" rx="4" fill="none" stroke="#7A7263" stroke-width="2.5" stroke-dasharray="5 4"></rect>
</svg>